# xmcd
#
# Track frame offsets:
#	180
#	36834
#	66211
#	99100
#	124602
#	156839
#	186466
#	219926
#	249109
#	274506
#	305021
#
# Disc length: 4445
#
# Revision: 2
# Processed by: cddbd v1.5.1PL0 Copyright (c) Steve Scherf et al.
# Submitted via: EasyCDDAExtractor 7.0.6.1
# Normalized: r1:DSETVAR1
#
DISCID=8f115b0b
DTITLE=Various Artist - Advanced Warning RG 002
DYEAR=1995
DGENRE=Dance
TTITLE0=ANita Ward - Ring My Bell (Extended Mix)
TTITLE1=Sylvester - You Make Me Feel (Extended Mix)
TTITLE2=Hot Chocolate - You Sexy Thing (Extended Mix)
TTITLE3=Pointer Sisters - I'm So Excited (Extended Mix)
TTITLE4=Breakfast Club - Right On Track (Extended Mix)
TTITLE5=Imagination - Just An Illusion (Extended Mix)
TTITLE6=B.A.D. - The Bottom Line (Def Jam Remix)
TTITLE7=Rod Stewart - Do Ya Think I'm Sexy? (Extended Remix)
TTITLE8=M - Pop Muzik (Hip Hop Club Remix)
TTITLE9=Psychedelic Furs - Pretty In Pink (Berlin Remix)
TTITLE10=<<compilation disc>> - She's A Lady (Extended Mix)
EXTD=
EXTT0=
EXTT1=
EXTT2=
EXTT3=
EXTT4=
EXTT5=
EXTT6=
EXTT7=
EXTT8=
EXTT9=
EXTT10=
PLAYORDER=
